<svg id="Layer_1" enable-background="new 0 0 512 512" height="512" viewBox="0 0 512 512" width="512" xmlns="http://www.w3.org/2000/svg"><g><path d="m511.551 474.75c-.68 1.9-2.11 3.44-3.95 4.27-.83.38-9.18 4.11-24.67 9.07-23.93 7.66-64.92 18.24-121.571 23.87-.25.03-.5.04-.74.04-2.94 0-5.64-1.72-6.85-4.44-.25-.55-24.18-54.24-51.77-119.419-9.64 1.21-29.54 3.43-46 3.43s-36.36-2.22-46-3.43c-27.59 65.18-51.52 118.869-51.77 119.419-1.32 2.95-4.37 4.73-7.59 4.4-93.31-9.27-144.121-31.97-146.241-32.94-1.84-.83-3.27-2.37-3.95-4.27-.69-1.9-.58-4 .3-5.81 119.66-247.838 186.891-458.677 187.561-460.787.88-2.77 3.29-4.79 6.18-5.17.97-.12 24.21-3.1 61.54-2.98 10.36-.03 19.63.17 27.65.49 20.82.82 33.13 2.39 33.83 2.49 2.89.38 5.3 2.4 6.18 5.17.67 2.11 67.93 213.009 187.561 460.787.88 1.81.99 3.91.3 5.81z" fill="#eff4f4"/><path d="m511.551 474.75c-.68 1.9-2.11 3.44-3.95 4.27-.83.38-9.18 4.11-24.67 9.07-109.26-227.748-180.901-433.227-199.251-487.596 20.82.82 33.13 2.39 33.83 2.49 2.89.38 5.3 2.4 6.18 5.17.67 2.11 67.93 213.009 187.561 460.787.88 1.809.99 3.909.3 5.809z" fill="#daeaef"/><path d="m469.791 451.71c-90.18-191.148-147.841-354.257-168.441-415.517-.97-2.89-3.6-4.9-6.64-5.09-8.74-.55-17.84-.9-27.18-1.03-3.77-.06-7.58-.08-11.42-.07h-.21c-13.35-.03-26.35.33-38.61 1.1-3.04.19-5.67 2.2-6.64 5.09-20.6 61.26-78.26 224.369-168.441 415.517-.94 1.98-.96 4.27-.06 6.27s2.62 3.51 4.73 4.13c17.71 5.2 46.84 12.47 85.02 17.5 3.3.43 6.5-1.37 7.84-4.42 10.89-24.75 41.93-96.209 53.09-125.469 10.42 2.45 32.18 6.45 63.17 6.45s52.75-4 63.17-6.45c11.16 29.26 42.2 100.719 53.09 125.469 1.21 2.75 3.92 4.48 6.86 4.48.33 0 .65-.02.98-.06 24.29-3.2 44.91-7.31 61.26-11.21 9.36-2.23 17.31-4.4 23.76-6.29 2.11-.62 3.83-2.13 4.73-4.13.902-2 .882-4.29-.058-6.27zm-170.071-172.498c-1.09 1.91-2.95 3.25-5.11 3.66-14.53 2.79-27.95 3.72-39.4 3.72-22.42 0-37.28-3.58-38.21-3.8-2.06-.51-3.81-1.88-4.81-3.75-1.01-1.88-1.16-4.09-.44-6.09 20.89-57.58 36.86-115.909 37.01-116.489.89-3.26 3.86-5.53 7.24-5.53s6.35 2.27 7.24 5.53c.15.58 16.12 58.93 37.01 116.489.75 2.06.55 4.35-.53 6.26z" fill="#ff6b81"/><path d="m469.851 457.98c-.9 2-2.62 3.51-4.73 4.13-6.45 1.89-14.4 4.06-23.76 6.29-89.681-191.888-150.751-369.887-173.831-438.327 9.34.13 18.44.48 27.18 1.03 3.04.19 5.67 2.2 6.64 5.09 20.6 61.26 78.26 224.369 168.441 415.517.94 1.98.96 4.27.06 6.27z" fill="#ed2061"/></g></svg>